<svg width="541" height="488" viewBox="0 0 541 488" fill="none" xmlns="http://www.w3.org/2000/svg">
<path d="M108.629 0L83.9405 153.195H247.501L257.993 94.5114L426.492 232.263L210.468 370.633L220.961 305.154H0L49.9939 355.808L28.3916 488H249.353C263.642 487.971 271.292 487.638 283.916 486.147C315.234 481.142 332.546 476.348 362.919 463.909C402.251 445.394 420.447 432.013 449.946 405.843C477.786 377.889 491.396 359.438 512.284 321.833C524.283 297.724 530.101 281.04 538.206 243.382C541.74 213.031 542.117 196.105 538.206 166.167C534.126 144.226 530.375 131.81 519.69 109.337C505.767 82.8839 495.365 69.1119 470.931 46.9468C453.209 33.354 441.977 25.9051 414.765 14.2076C384.072 3.24622 365.751 0.351055 331.441 0H108.629Z" fill="#F8F8F8"/>
</svg>
